Motion_pl06
version=1
nRows=9
nColumns=43
inDegrees=yes
endheader
time	pelvis_tilt	pelvis_list	pelvis_rotation	pelvis_tx	pelvis_ty	pelvis_tz	hip_flexion_r	hip_adduction_r	hip_rotation_r	knee_angle_r	ankle_angle_r	subtalar_angle_r	mtp_angle_r	hip_flexion_l	hip_adduction_l	hip_rotation_l	knee_angle_l	ankle_angle_l	subtalar_angle_l	mtp_angle_l	lumbar_extension	lumbar_bending	lumbar_rotation	neck_flexion	neck_lateral_bending	neck_rotation	arm_flex_r	arm_add_r	arm_rot_r	elbow_flex_r	pro_sup_r	wrist_flex_r	wrist_dev_r	hand_finger_flex_r	arm_flex_l	arm_add_l	arm_rot_l	elbow_flex_l	pro_sup_l	wrist_flex_l	wrist_dev_l	hand_finger_flex_l
      0.00250000	     -1.70185186	      1.01344182	     94.55000088	      0.00905073	      1.90339493	      1.92626776	     54.11291242	    -10.23562435	      4.03395182	   -111.34493850	     28.51624878	     -8.53163297	      1.55365667	     55.12077500	     -3.45075986	      6.26512642	   -109.47562832	     31.77009575	      0.61258725	      5.45962148	    -57.96577345	      1.74180544	     -4.30561536	     16.42746322	      0.91158480	     -0.66333886	     -8.16077593	    -18.73065319	    -10.92868898	     71.02346729	     95.27662332	    -46.61837114	     -4.10838247	     44.40031078	     -7.52792508	    -14.87756736	    -24.53517803	     80.03763762	    119.03339859	    -25.77067280	      6.36555906	     67.18262686
      0.00500000	     -1.70468069	      0.96556861	     94.54925238	      0.00905509	      1.90229971	      1.92631071	     54.28701970	    -10.19679485	      4.10958125	   -111.53718825	     28.47420070	     -8.62194143	      1.54102414	     55.28263229	     -3.39978412	      6.29624061	   -109.66828606	     31.76149240	      0.44708407	      5.44354348	    -58.04464647	      1.75202121	     -4.26301448	     16.63807878	      0.82096736	     -0.71109465	     -7.94275286	    -18.70605804	    -10.96158358	     70.73406047	     95.16460218	    -46.57004481	     -4.09121922	     44.34254715	     -7.26954655	    -14.74471668	    -24.52378838	     79.76826229	    118.96043845	    -25.66527449	      6.38155702	     67.27335391
      0.00750000	     -1.70730162	      1.00487605	     94.57234431	      0.00910271	      1.90099974	      1.92624999	     54.38021048	    -10.16893039	      4.18001638	   -111.82032079	     28.48617645	     -8.65121468	      1.54265787	     55.39205348	     -3.36866417	      6.34596714	   -109.93963320	     31.77768772	      0.40016818	      5.44340534	    -58.17363889	      1.77020584	     -4.24845086	     16.75244765	      0.79386083	     -0.72159152	     -7.82626306	    -18.70190696	    -10.97158192	     70.56465985	     95.12051716	    -46.52949943	     -4.05331627	     44.33224952	     -7.14724102	    -14.67662642	    -24.48784536	     79.64068205	    118.91427797	    -25.61515016	      6.39870191	     67.29835505
      0.01000000	     -1.62421483	      0.66303117	     94.61672367	      0.00910713	      1.89920895	      1.92644554	     54.91564712	    -10.12145209	      4.18436786	   -112.06364453	     28.40312494	     -8.63844679	      1.52940977	     55.96618096	     -3.33355869	      6.45591388	   -110.18357222	     31.66295079	      0.13139105	      5.40806808	    -57.91391647	      1.85906957	     -4.19416176	     16.93754171	      0.67953973	     -0.86993064	     -7.64659491	    -18.67202714	    -11.04155573	     70.32677683	     94.87072195	    -46.12199818	     -3.89847174	     44.33711506	     -6.89776389	    -14.56351139	    -24.51651326	     79.32913765	    118.25434981	    -25.10236663	      6.49768270	     67.62007074
      0.01250000	     -1.63281897	      0.70623525	     94.63195061	      0.00911340	      1.89799430	      1.92642295	     54.99109947	    -10.09519262	      4.26726022	   -112.31291661	     28.44294092	     -8.66327268	      1.53585435	     56.05821176	     -3.27231879	      6.52891299	   -110.43583641	     31.69570894	      0.12771636	      5.41390608	    -58.06310965	      1.86533840	     -4.15843377	     17.06350972	      0.65390856	     -0.84879113	     -7.50406409	    -18.67334078	    -11.05883143	     70.12861741	     94.85414978	    -46.09746582	     -3.85632457	     44.32239861	     -6.74368994	    -14.48638837	    -24.46442353	     79.24330400	    118.21009439	    -25.07366538	      6.51072929	     67.62220692
      0.01500000	     -1.63781961	      0.73077258	     94.64544318	      0.00920448	      1.89696667	      1.92655680	     55.07546853	    -10.08482257	      4.29872618	   -112.49918761	     28.47136503	     -8.67717519	      1.54074873	     56.15079547	     -3.25925379	      6.56072940	   -110.61191460	     31.72329916	      0.12018744	      5.41826716	    -58.22892332	      1.87392587	     -4.15367085	     17.11463787	      0.64103073	     -0.84407288	     -7.33782996	    -18.63605257	    -11.03495192	     70.07571403	     94.85136255	    -46.07850053	     -3.84547036	     44.31776132	     -6.57248736	    -14.42854989	    -24.41058515	     79.21790519	    118.18537234	    -25.05829237	      6.51351486	     67.62021083
      0.01750000	     -1.61992919	      0.62757461	     94.66438771	      0.00923303	      1.89584740	      1.92644430	     55.26572150	    -10.03672269	      4.35185453	   -112.68156512	     28.52598039	     -8.66118055	      1.55169039	     56.36250945	     -3.19257813	      6.66557109	   -110.80481627	     31.75817298	      0.13190350	      5.42581158	    -58.26131824	      1.89507438	     -4.08901368	     17.56847006	      0.58484658	     -0.84691828	     -7.00994082	    -18.59791237	    -11.04419842	     69.56244551	     94.85721190	    -46.01305266	     -3.75784223	     44.29782876	     -6.24344133	    -14.32188339	    -24.37626829	     78.86322241	    117.93279871	    -24.95851952	      6.60107098	     67.64146323
      0.02000000	     -1.62075260	      0.65784988	     94.68547194	      0.00936441	      1.89452926	      1.92637441	     55.36544809	    -10.00613018	      4.39628297	   -112.96428542	     28.55918608	     -8.67556628	      1.55815671	     56.47417836	     -3.16403987	      6.72912437	   -111.07245699	     31.78351913	      0.12412809	      5.43060387	    -58.38760763	      1.89933356	     -4.07154073	     17.67313798	      0.56409707	     -0.84647315	     -6.88248398	    -18.57641680	    -11.02994518	     69.42983182	     94.87185225	    -45.99490710	     -3.74887301	     44.29246171	     -6.09943930	    -14.28005445	    -24.34934807	     78.80012016	    117.84358158	    -24.93141643	      6.61564991	     67.64805333
      0.02250000	     -1.48260868	      0.24087095	     94.71318938	      0.00956746	      1.89250785	      1.92652284	     55.97041245	     -9.89776242	      4.34891222	   -113.21377518	     28.60549475	     -8.59895912	      1.57174699	     57.15113338	     -3.20482721	      6.92860326	   -111.35405271	     31.74452953	      0.19902733	      5.43449006	    -58.05264070	      1.98512787	     -4.03010101	     17.95230323	      0.51695439	     -0.89489826	     -6.61768326	    -18.49507411	    -10.96752038	     69.06383780	     95.27498861	    -45.95599550	     -3.99615080	     44.31512612	     -5.97353703	    -14.24827863	    -24.34443103	     78.62421677	    116.54168846	    -24.67049574	      6.70084947	     67.83341735
